<?xml version="1.0" encoding="UTF-8"?>
<svg xmlns="http://www.w3.org/2000/svg" width="1500" height="920" viewBox="0 0 1500 920">
  <defs>
    <style>
      .title { font: bold 30px sans-serif; fill: #111827; }
      .subtitle { font: 17px sans-serif; fill: #374151; }
      .chip { fill: #f3f4f6; stroke: #111827; stroke-width: 2; rx: 14; }
      .module { fill: #ffffff; stroke: #111827; stroke-width: 2; rx: 12; }
      .label { font: 17px sans-serif; fill: #111827; }
      .small { font: 14px sans-serif; fill: #374151; }
      .note { font: 13px sans-serif; fill: #4b5563; }
      .pin { fill: #111827; }
      .sig { stroke: #2563eb; stroke-width: 3; fill: none; }
      .dig { stroke: #059669; stroke-width: 3; fill: none; }
      .btn { stroke: #7c3aed; stroke-width: 3; fill: none; }
      .vcc { stroke: #d97706; stroke-width: 3; fill: none; }
      .gnd { stroke: #dc2626; stroke-width: 3; fill: none; }
    </style>
    <marker id="arrB" viewBox="0 0 10 10" refX="9" refY="5" markerWidth="8" markerHeight="8" orient="auto-start-reverse">
      <path d="M 0 0 L 10 5 L 0 10 z" fill="#2563eb"/>
    </marker>
    <marker id="arrG" viewBox="0 0 10 10" refX="9" refY="5" markerWidth="8" markerHeight="8" orient="auto-start-reverse">
      <path d="M 0 0 L 10 5 L 0 10 z" fill="#059669"/>
    </marker>
    <marker id="arrP" viewBox="0 0 10 10" refX="9" refY="5" markerWidth="8" markerHeight="8" orient="auto-start-reverse">
      <path d="M 0 0 L 10 5 L 0 10 z" fill="#7c3aed"/>
    </marker>
    <marker id="arrO" viewBox="0 0 10 10" refX="9" refY="5" markerWidth="8" markerHeight="8" orient="auto-start-reverse">
      <path d="M 0 0 L 10 5 L 0 10 z" fill="#d97706"/>
    </marker>
    <marker id="arrR" viewBox="0 0 10 10" refX="9" refY="5" markerWidth="8" markerHeight="8" orient="auto-start-reverse">
      <path d="M 0 0 L 10 5 L 0 10 z" fill="#dc2626"/>
    </marker>
  </defs>

  <text x="36" y="48" class="title">Slot Machine Wiring Diagram (Based on 3-1)</text>
  <text x="36" y="76" class="subtitle">UNO R3 + 74HC595 + 4-digit 7-segment + digit transistors + 3 buttons + passive buzzer</text>

  <rect x="50" y="110" width="560" height="760" class="chip"/>
  <text x="82" y="150" class="label">Arduino UNO R3</text>

  <circle cx="150" cy="220" r="5" class="pin"/>
  <text x="170" y="226" class="label">D2  -&gt; 74HC595 DS (SER)</text>
  <circle cx="150" cy="260" r="5" class="pin"/>
  <text x="170" y="266" class="label">D3  -&gt; 74HC595 SH_CP (SRCLK)</text>
  <circle cx="150" cy="300" r="5" class="pin"/>
  <text x="170" y="306" class="label">D7  -&gt; 74HC595 ST_CP (RCLK)</text>

  <circle cx="150" cy="360" r="5" class="pin"/>
  <text x="170" y="366" class="label">D8  -&gt; DIG1 transistor base (1k)</text>
  <circle cx="150" cy="400" r="5" class="pin"/>
  <text x="170" y="406" class="label">D10 -&gt; DIG2 transistor base (1k)</text>
  <circle cx="150" cy="440" r="5" class="pin"/>
  <text x="170" y="446" class="label">A0  -&gt; DIG3 transistor base (1k)</text>
  <circle cx="150" cy="480" r="5" class="pin"/>
  <text x="170" y="486" class="label">A1  -&gt; DIG4 transistor base (1k)</text>

  <circle cx="150" cy="560" r="5" class="pin"/>
  <text x="170" y="566" class="label">D4  -&gt; Left button (INPUT_PULLUP)</text>
  <circle cx="150" cy="600" r="5" class="pin"/>
  <text x="170" y="606" class="label">D5  -&gt; Center button (INPUT_PULLUP)</text>
  <circle cx="150" cy="640" r="5" class="pin"/>
  <text x="170" y="646" class="label">D6  -&gt; Right button (INPUT_PULLUP)</text>

  <circle cx="150" cy="700" r="5" class="pin"/>
  <text x="170" y="706" class="label">D9  -&gt; Passive buzzer (+)</text>

  <circle cx="150" cy="790" r="5" class="pin"/>
  <text x="170" y="796" class="label">5V</text>
  <circle cx="150" cy="830" r="5" class="pin"/>
  <text x="170" y="836" class="label">GND</text>

  <rect x="700" y="130" width="360" height="250" class="module"/>
  <text x="726" y="168" class="label">74HC595</text>
  <text x="726" y="198" class="small">DS(14)   &lt;- D2</text>
  <text x="726" y="222" class="small">SH_CP(11) &lt;- D3</text>
  <text x="726" y="246" class="small">ST_CP(12) &lt;- D7</text>
  <text x="726" y="270" class="small">OE(13) -&gt; GND, MR(10) -&gt; 5V</text>
  <text x="726" y="294" class="small">Q0-Q7 -&gt; a,b,c,d,e,f,g,dp</text>
  <text x="726" y="318" class="small">Each line via 220-330 ohm resistor</text>

  <rect x="1120" y="130" width="340" height="260" class="module"/>
  <text x="1146" y="168" class="label">4-digit 7-segment display</text>
  <text x="1146" y="198" class="small">Segment lines: a,b,c,d,e,f,g,dp</text>
  <text x="1146" y="222" class="small">Digit lines: DIG1,DIG2,DIG3,DIG4</text>
  <text x="1146" y="246" class="small">Use transistor digit switching</text>
  <text x="1146" y="270" class="small">NPN example shown (common cathode)</text>

  <rect x="700" y="430" width="360" height="210" class="module"/>
  <text x="726" y="468" class="label">Digit select transistors x4</text>
  <text x="726" y="498" class="small">D8  -&gt; DIG1 base (1k)</text>
  <text x="726" y="522" class="small">D10 -&gt; DIG2 base (1k)</text>
  <text x="726" y="546" class="small">A0  -&gt; DIG3 base (1k)</text>
  <text x="726" y="570" class="small">A1  -&gt; DIG4 base (1k)</text>

  <rect x="1120" y="450" width="340" height="170" class="module"/>
  <text x="1146" y="488" class="label">Buttons x3</text>
  <text x="1146" y="516" class="small">Left signal   -&gt; D4</text>
  <text x="1146" y="540" class="small">Center signal -&gt; D5</text>
  <text x="1146" y="564" class="small">Right signal  -&gt; D6</text>
  <text x="1146" y="588" class="small">Other side of each button -&gt; GND</text>

  <rect x="1120" y="660" width="340" height="120" class="module"/>
  <text x="1146" y="698" class="label">Passive buzzer</text>
  <text x="1146" y="724" class="small">+ -&gt; D9, - -&gt; GND</text>

  <path d="M 155 220 C 430 220, 560 190, 700 198" class="sig" marker-end="url(#arrB)"/>
  <path d="M 155 260 C 430 260, 560 220, 700 222" class="sig" marker-end="url(#arrB)"/>
  <path d="M 155 300 C 430 300, 560 248, 700 246" class="sig" marker-end="url(#arrB)"/>

  <path d="M 1060 308 C 1100 308, 1108 246, 1120 246" class="sig" marker-end="url(#arrB)"/>
  <text x="1068" y="292" class="note">Q0-Q7 via resistors</text>

  <path d="M 155 360 C 430 360, 560 468, 700 498" class="dig" marker-end="url(#arrG)"/>
  <path d="M 155 400 C 430 400, 560 500, 700 522" class="dig" marker-end="url(#arrG)"/>
  <path d="M 155 440 C 430 440, 560 534, 700 546" class="dig" marker-end="url(#arrG)"/>
  <path d="M 155 480 C 430 480, 560 566, 700 570" class="dig" marker-end="url(#arrG)"/>

  <path d="M 1060 560 C 1100 560, 1108 222, 1120 222" class="dig" marker-end="url(#arrG)"/>
  <text x="1068" y="542" class="note">DIG1-DIG4</text>

  <path d="M 155 560 C 470 560, 630 510, 1120 516" class="btn" marker-end="url(#arrP)"/>
  <path d="M 155 600 C 470 600, 630 536, 1120 540" class="btn" marker-end="url(#arrP)"/>
  <path d="M 155 640 C 470 640, 630 562, 1120 564" class="btn" marker-end="url(#arrP)"/>

  <path d="M 155 700 C 520 700, 740 694, 1120 698" class="dig" marker-end="url(#arrG)"/>

  <path d="M 155 790 C 430 790, 620 270, 700 270" class="vcc" marker-end="url(#arrO)"/>
  <path d="M 155 790 C 580 790, 860 748, 1120 748" class="vcc" marker-end="url(#arrO)"/>

  <path d="M 155 830 C 430 830, 620 286, 700 286" class="gnd" marker-end="url(#arrR)"/>
  <path d="M 155 830 C 520 830, 760 580, 700 580" class="gnd" marker-end="url(#arrR)"/>
  <path d="M 155 830 C 660 830, 940 588, 1120 588" class="gnd" marker-end="url(#arrR)"/>
  <path d="M 155 830 C 720 830, 980 724, 1120 724" class="gnd" marker-end="url(#arrR)"/>

  <text x="50" y="892" class="small">Note: D0/D1 are unused. This diagram follows basic_design.md section 3-1 exactly.</text>
</svg>
